<svg width="60" height="63" viewBox="0 0 60 63" fill="none" xmlns="http://www.w3.org/2000/svg">
<path d="M29.345 56.2803C29.345 52.7959 26.7838 49.9714 23.6248 49.9714C20.4652 49.9714 17.9041 52.7959 17.9041 56.2797C17.9041 59.7641 20.4652 62.5886 23.6248 62.5886C26.7821 62.5849 29.3416 59.7629 29.345 56.2803ZM19.9331 56.2803C19.9331 54.0315 21.5856 52.2091 23.6248 52.2091C25.6634 52.2091 27.316 54.0315 27.316 56.2797C27.316 58.5286 25.6634 60.351 23.6248 60.351C21.5867 60.3485 19.9353 58.5273 19.9331 56.2803Z" fill="#E25447"/>
<path d="M44.8067 62.5886C47.9662 62.5892 50.5273 59.7648 50.5273 56.2803C50.5279 52.7959 47.9668 49.9714 44.8073 49.9714C41.6478 49.9714 39.0867 52.7959 39.0867 56.2803C39.0906 59.7623 41.6489 62.5843 44.8067 62.5886ZM44.8067 52.2091C46.8453 52.2091 48.4984 54.0315 48.4984 56.2797C48.4989 58.5279 46.8459 60.351 44.8073 60.351C42.7687 60.351 41.1156 58.5286 41.1156 56.2803C41.1179 54.0334 42.7693 52.2122 44.8067 52.2091Z" fill="#E25447"/>
<path d="M1.01449 2.23762H7.20274C9.23908 2.22888 10.9754 3.86398 11.2856 6.08407L16.1842 40.2089C16.6468 43.5178 19.2351 45.9558 22.2712 45.9427H52.5506C53.1105 45.9427 53.5651 45.4414 53.5651 44.8239C53.5651 44.2058 53.1105 43.7051 52.5506 43.7051H22.2712C20.2348 43.7139 18.4985 42.0781 18.1883 39.8587L17.3555 34.0568H48.367C50.9927 34.0556 53.3296 32.2213 54.1901 29.4862L59.9436 11.1736C60.0517 10.8314 60.0025 10.4531 59.8123 10.1578C59.6215 9.8631 59.3135 9.68766 58.9852 9.68766H13.8569L13.2897 5.73383C12.8271 2.42492 10.2388 -0.0130581 7.20274 5.26269e-05H1.01449C0.454028 5.26269e-05 0 0.501384 0 1.11884C0 1.73692 0.454028 2.23762 1.01449 2.23762ZM57.5597 11.9259L52.2732 28.7532C51.6958 30.5881 50.1282 31.8186 48.367 31.8193H17.034L14.1779 11.9252L57.5597 11.9259Z" fill="#E25447"/>
</svg>
