<svg width="60" height="63" viewBox="0 0 60 63" fill="none" xmlns="http://www.w3.org/2000/svg">
<path d="M18.6643 60.4669C21.3769 63.2959 25.7741 63.2959 28.4867 60.4669L59.6877 27.9199C59.8888 27.7102 60.0012 27.4247 60 27.1281L59.8751 1.23744C59.8721 0.627464 59.3986 0.134149 58.8144 0.131046L33.9939 0.000115915C33.709 -0.00422775 33.4347 0.113672 33.2348 0.32589L2.03442 32.8729C-0.678141 35.7019 -0.678141 40.2894 2.03442 43.119L18.6643 60.4669ZM3.54239 34.4453L34.4287 2.22655L57.749 2.34941L57.8662 26.6751L26.9805 58.8939C25.1001 60.8547 22.0527 60.8547 20.1729 58.8939L3.54358 41.5472C1.66442 39.5863 1.66442 36.4074 3.54358 34.4465L3.54239 34.4453Z" fill="#E25447"/>
<path d="M42.4397 25.561C45.7513 25.5585 48.6007 23.1161 49.2449 19.7274C49.8891 16.3387 48.1486 12.9469 45.088 11.6265C42.0275 10.306 38.4993 11.4248 36.6606 14.2984C34.8219 17.1721 35.1854 21.0001 37.5279 23.4419C38.8301 24.8015 40.5974 25.5641 42.4397 25.561ZM39.0359 14.7682C40.9157 12.8073 43.9631 12.8073 45.8435 14.7682C47.7232 16.7291 47.7232 19.908 45.8435 21.8689C43.9631 23.8304 40.9157 23.8298 39.0359 21.8689C38.1293 20.9294 37.6201 19.6517 37.6201 18.3188C37.6201 16.986 38.1293 15.7083 39.0359 14.7688V14.7682Z" fill="#E25447"/>
</svg>
