<svg width="60" height="60" viewBox="0 0 60 60" fill="none" xmlns="http://www.w3.org/2000/svg">
<g clip-path="url(#clip0_21_1253)">
<path d="M38.9943 2.95375C35.8898 1.87251 32.6248 1.32219 29.337 1.32607C13.1606 1.32607 2.55586e-05 14.486 2.55586e-05 30.6631C-0.00450656 34.0913 0.593732 37.4936 1.76755 40.7147C1.98703 41.3168 2.65325 41.6269 3.25538 41.4068C3.8575 41.1873 4.16698 40.5211 3.9475 39.919C2.86691 36.953 2.31658 33.82 2.32047 30.6631C2.32047 15.766 14.44 3.64651 29.337 3.64651C32.3645 3.64263 35.3712 4.14893 38.2303 5.1447C38.622 5.2839 39.0591 5.20232 39.3744 4.93104C39.6897 4.66041 39.836 4.24087 39.7577 3.83233C39.6793 3.42379 39.388 3.08841 38.9943 2.95375Z" fill="#E25447"/>
<path d="M13.9881 52.8989L17.6623 47.9123C17.9381 47.5381 17.964 47.0356 17.7277 46.6349C17.492 46.2348 17.0401 46.014 16.5791 46.0735L7.47218 47.2558C7.15881 47.2966 6.87523 47.4636 6.68747 47.7181C6.49971 47.9725 6.42396 48.293 6.4777 48.6044L8.04646 57.6531C8.1261 58.1108 8.47118 58.4773 8.9231 58.5835C9.37566 58.6903 9.8483 58.5168 10.1235 58.1432L12.6097 54.7681C17.5147 58.1918 23.3559 60.0189 29.337 60.0001C45.5141 60.0001 58.674 46.8401 58.674 30.6631C58.6818 26.7829 57.9139 22.9403 56.4164 19.3606C56.2591 18.9747 55.9062 18.7022 55.4932 18.6478C55.0794 18.594 54.6683 18.7656 54.4171 19.0978C54.1652 19.4305 54.1109 19.8728 54.2753 20.256C55.6544 23.5522 56.3607 27.0905 56.3536 30.6631C56.3536 45.5601 44.2341 57.6796 29.337 57.6796C23.8519 57.6965 18.4936 56.028 13.9881 52.8989ZM9.86902 54.5777L8.97166 49.4014L14.1816 48.7248L11.4423 52.4431C11.4391 52.4463 11.4365 52.4496 11.4339 52.4528C11.4313 52.4561 11.4261 52.4645 11.4216 52.4703L9.86902 54.5777Z" fill="#E25447"/>
<path d="M51.5548 0C50.9138 0 50.3945 0.519251 50.3945 1.16022V7.28505H43.9227C43.2817 7.28505 42.7625 7.8043 42.7625 8.44527C42.7625 9.08624 43.2817 9.60549 43.9227 9.60549H50.3945V16.0773C50.3945 16.7183 50.9138 17.2376 51.5548 17.2376C52.1957 17.2376 52.715 16.7183 52.715 16.0773V9.60549H58.8398C59.4808 9.60549 60 9.08624 60 8.44527C60 7.8043 59.4808 7.28505 58.8398 7.28505H52.715V1.16022C52.715 0.519251 52.1957 0 51.5548 0Z" fill="#E25447"/>
<path d="M29.3946 41.6054C29.3752 41.6041 29.3564 41.6021 29.337 41.6021C29.3176 41.6021 29.2988 41.6041 29.2794 41.6054C26.5633 41.5711 24.3789 39.3613 24.3756 36.6453C24.3756 36.0043 23.8564 35.4851 23.2154 35.4851C22.5744 35.4851 22.0552 36.0043 22.0552 36.6453C22.0604 40.2173 24.6514 43.2596 28.1768 43.8332V46.4088C28.1768 47.0497 28.696 47.569 29.337 47.569C29.978 47.569 30.4972 47.0497 30.4972 46.4088V43.8332C34.244 43.2285 36.8979 39.8463 36.5942 36.0633C36.2912 32.2802 33.1323 29.3641 29.337 29.3635C26.597 29.3635 24.3756 27.1428 24.3756 24.4021C24.3756 21.6621 26.597 19.4408 29.337 19.4408C32.0776 19.4408 34.2984 21.6621 34.2984 24.4028C34.2984 25.0431 34.8183 25.563 35.4586 25.563C36.0996 25.563 36.6188 25.0431 36.6188 24.4028C36.6143 20.8302 34.0232 17.7872 30.4972 17.2135V14.9171C30.4972 14.2761 29.978 13.7568 29.337 13.7568C28.696 13.7568 28.1768 14.2761 28.1768 14.9171V17.2135C24.4307 17.8202 21.7781 21.2012 22.0817 24.9842C22.3847 28.7665 25.5423 31.682 29.337 31.6833C32.066 31.6833 34.2822 33.8865 34.2984 36.6155C34.3139 39.3439 32.123 41.573 29.3946 41.6047V41.6054Z" fill="#E25447"/>
</g>
<defs>
<clipPath id="clip0_21_1253">
<rect width="60" height="60" fill="white"/>
</clipPath>
</defs>
</svg>

