<svg width="18" height="18" viewBox="0 0 18 18" fill="none" xmlns="http://www.w3.org/2000/svg">
<g clip-path="url(#clip0_21_1116)">
<path d="M17.7801 16.7197L12.6614 11.601C13.6529 10.3763 14.2498 8.82002 14.2498 7.12505C14.2498 3.19659 11.0534 0.000106812 7.12491 0.000106812C3.19645 0.000106812 0 3.19655 0 7.12501C0 11.0535 3.19648 14.25 7.12494 14.25C8.81991 14.25 10.3762 13.653 11.6009 12.6615L16.7196 17.7802C16.8658 17.9264 17.0578 17.9999 17.2498 17.9999C17.4419 17.9999 17.6339 17.9264 17.7801 17.7802C18.0733 17.4869 18.0733 17.0129 17.7801 16.7197ZM7.12494 12.75C4.02296 12.75 1.5 10.227 1.5 7.12501C1.5 4.02303 4.02296 1.50007 7.12494 1.50007C10.2269 1.50007 12.7499 4.02303 12.7499 7.12501C12.7499 10.227 10.2269 12.75 7.12494 12.75Z" fill="white" fill-opacity="0.8"/>
</g>
<defs>
<clipPath id="clip0_21_1116">
<rect width="18" height="18" fill="white"/>
</clipPath>
</defs>
</svg>
