<svg width="60" height="60" viewBox="0 0 60 60" fill="none" xmlns="http://www.w3.org/2000/svg">
<path d="M22.5933 18.4331C21.5396 16.0317 20.9971 13.438 21 10.8159V6C21.5523 6 22 5.55225 22 5V1C22 0.447754 21.5523 0 21 0H13C12.4478 0 12 0.447754 12 1V5C12 5.55225 12.4478 6 13 6V10.8159C13.003 13.438 12.4605 16.0317 11.4073 18.4331L8.60012 24.8511C6.8804 28.7671 5.99465 32.998 6.00002 37.2749V59C6.00002 59.5522 6.44778 60 7.00002 60H27C27.5523 60 28 59.5522 28 59V37.2749C28.0054 32.998 27.1201 28.7671 25.3999 24.8511L22.5933 18.4331ZM14 2H20V4H14V2ZM26 58H8.00002V37.2749C7.99514 33.2734 8.82327 29.3149 10.4322 25.6509L13.2393 19.2329C14.4033 16.5801 15.003 13.7134 15 10.8159V6H19V10.8159C18.9971 13.7134 19.5967 16.5801 20.7613 19.2329L23.5679 25.6509C25.1768 29.3149 26.0049 33.2734 26 37.2749V58Z" fill="#E25447"/>
<path d="M19.0708 25.3541L19.9028 27.254C20.3325 28.2389 20.6987 29.2496 21 30.2809C21.125 30.7072 21.5156 31.0001 21.96 31.0001C22.0552 31.0001 22.1499 30.9865 22.2412 30.9601C22.7715 30.8053 23.0752 30.2492 22.9199 29.7194C22.5933 28.6066 22.1958 27.5158 21.7309 26.4533L20.8989 24.5534C20.7637 24.2145 20.4546 23.9767 20.0928 23.9323C19.7305 23.8878 19.3735 24.0441 19.1597 24.3395C18.9463 24.6354 18.9111 25.0236 19.0669 25.3532L19.0708 25.3541Z" fill="#E25447"/>
<path d="M17.7813 22.4C17.94 22.7647 18.3004 23.0001 18.6983 23.0001C18.836 23.0006 18.9722 22.9718 19.0982 22.9161C19.6036 22.6944 19.834 22.1056 19.6129 21.6002L18.9283 20.0323C18.6968 19.544 18.1192 19.3277 17.6241 19.544C17.129 19.7598 16.8951 20.3306 17.0962 20.8321L17.7813 22.4Z" fill="#E25447"/>
<path d="M11 35C10.4478 35 10 35.4478 10 36V53C10 53.5522 10.4478 54 11 54H23C23.5522 54 24 53.5522 24 53V36C24 35.4478 23.5522 35 23 35H11ZM22 52H12V37H22V52Z" fill="#E25447"/>
<path d="M50.7998 57.6001C48.8203 56.1221 46.4629 55.2344 44 55.04V40.9492C49.6597 40.4277 53.9927 35.6836 54 30C54 29.9526 53.9971 29.9048 53.9902 29.8579L53.4639 26.1719V26.165L51.9902 15.8579C51.9194 15.3657 51.4976 15 51 15H35C34.5024 15 34.0806 15.3657 34.0103 15.8579L32.0103 29.8579C32.0034 29.9048 32 29.9526 32 30C32.0073 35.6836 36.3403 40.4277 42 40.9492V55.041C39.5371 55.2354 37.1797 56.1226 35.2002 57.6011L34.3999 58.2012C34.0566 58.4595 33.9165 58.9087 34.0527 59.3164C34.189 59.7241 34.5703 59.9995 35 60H51C51.4307 60 51.8125 59.7246 51.9487 59.3164C52.085 58.9077 51.9443 58.4585 51.6001 58.2002L50.7998 57.6001ZM35.8672 17H50.1328L51.333 25.3999L49.4082 25.6152C47.2212 25.8599 45.0073 25.6758 42.8911 25.0718L42.772 25.0371C40.3149 24.3394 37.7422 24.1455 35.208 24.4668L34.793 24.5181L35.8672 17ZM34 30.0688L34.5 26.5688L35.4541 26.4521C37.7163 26.1616 40.0142 26.3315 42.209 26.9521L42.3262 26.9868C44.6978 27.6665 47.1792 27.8745 49.6309 27.5991L51.6162 27.377L52 30.0688C52 35.0396 47.9707 39.0688 43 39.0688C38.0293 39.0688 34 35.0396 34 30.0688ZM38.4238 58C41.335 56.6948 44.665 56.6948 47.5762 58H38.4238Z" fill="#E25447"/>
</svg>
